<svg xmlns="http://www.w3.org/2000/svg" viewBox="0 0 200 200" width="200" height="200">
  <!-- Dark background circle -->
  <circle cx="100" cy="100" r="96" fill="#0a0e14" stroke="#00d4ff" stroke-width="3"/>

  <!-- Shield body -->
  <path d="M100 30 L155 55 L155 105 C155 140 100 170 100 170 C100 170 45 140 45 105 L45 55 Z"
        fill="#0d1117" stroke="#00d4ff" stroke-width="2.5"/>

  <!-- Shield inner highlight -->
  <path d="M100 42 L143 63 L143 106 C143 133 100 157 100 157 C100 157 57 133 57 106 L57 63 Z"
        fill="none" stroke="#00d4ff" stroke-width="1" opacity="0.4"/>

  <!-- Lock body -->
  <rect x="82" y="102" width="36" height="28" rx="4" fill="#00d4ff" opacity="0.9"/>

  <!-- Lock shackle -->
  <path d="M88 102 L88 90 C88 79 112 79 112 90 L112 102"
        fill="none" stroke="#00d4ff" stroke-width="5" stroke-linecap="round"/>

  <!-- Lock keyhole -->
  <circle cx="100" cy="114" r="5" fill="#0a0e14"/>
  <rect x="97.5" y="114" width="5" height="9" fill="#0a0e14"/>

  <!-- Glow effect -->
  <path d="M100 30 L155 55 L155 105 C155 140 100 170 100 170 C100 170 45 140 45 105 L45 55 Z"
        fill="none" stroke="#00d4ff" stroke-width="6" opacity="0.15"/>
</svg>
